<?xml version="1.0" encoding="UTF-8"?>
<svg id="Layer_1" data-name="Layer 1" xmlns="http://www.w3.org/2000/svg" version="1.1" viewBox="0 0 841.9 595.3">
  <defs>
    <style>
      .cls-1, .cls-2 {
        display: none;
      }

      .cls-1, .cls-2, .cls-3, .cls-4, .cls-5 {
        stroke-width: 0px;
      }

      .cls-1, .cls-4 {
        fill: #575756;
      }

      .cls-2, .cls-3 {
        fill: #9d9d9c;
      }

      .cls-5 {
        fill: #fff;
      }
    </style>
  </defs>
  <g>
    <polygon class="cls-5" points="139.3 314.7 140.3 315.1 140.6 316 140.6 318.6 140.5 321 140.7 323.6 140.6 326.1 140.2 327 139.3 327.3 136.6 327.6 133.9 327.5 128.6 327.2 126 327.1 123.3 327.1 117.9 327 115.2 327.4 112.6 327.4 111.8 327 111.4 326.1 111.2 323.6 111.4 321 111.4 318.6 111.6 316.1 111.9 315.2 112.6 314.9 114.5 314.9 116.4 314.9 117.2 314.5 117.6 313.7 117.9 310.8 117.7 308 117.7 302.3 117.6 296.6 117.6 293.7 117.6 290.8 117.9 287.9 117.7 285 117.2 284.4 116.3 284.2 114.5 284.1 112.6 284.1 111.8 283.7 111.6 282.7 111.4 280.3 111.5 277.8 111.4 275.2 111.7 272.8 111.8 271.8 112.6 271.4 115.5 271.3 118.5 271.6 121.3 271.7 124.3 271.7 127.2 271.6 130.1 271.5 135.9 271.5 141.7 271.6 144.7 271.5 147.6 271.4 153.4 271.5 156.3 271.4 159.3 271.5 160 271.9 160.3 272.8 160.7 275.5 160.7 278.3 160.5 283.7 160.8 286.4 160.7 289.1 160.2 289.8 159.2 290.1 156.9 290.3 154.5 290.2 152.1 290.5 149.7 290.3 148.8 290 148.3 289.2 148.2 287.5 148.2 285.8 147.8 284.9 147.1 284.4 143.7 284.4 140.2 284.8 136.6 284.5 133.2 284.7 133 285 133.2 285.8 133.3 289.7 133.4 293.5 133.6 294.2 134.2 294.5 137.2 294.4 146.4 294.4 147.1 294.2 147.4 294.5 147.7 297.3 147.4 300.2 147.6 303.1 147.7 306.1 147.6 306.8 147.1 307.2 143.9 307.4 140.7 307.1 134.3 307 133.5 307.4 133.3 308.3 133.3 309.5 133.4 310.8 133.4 312.2 133.5 313.6 133.7 314.5 134.5 314.9 136.9 314.6 139.3 314.7"/>
    <path class="cls-5" d="M227.6,296.8l-.4-2.7-.4-2.4-.7-2.9-1.1-2.2-1.5-2.5-1.2-2.1-1.7-2.4-1.6-1.7-2.2-2-2.1-1.5-2.5-1.3-2.7-1.1-2.4-.6-2.5-.5-2.7-.5-3.1-.2h-2.2c0,0-2.5.2-2.5.2l-2.7.3-2.3.4-2.9.6-2.2.7-2.7,1.2-2.2,1.2-2.3,1.5-2,1.4-2.2,1.9-1.3,1.7-1.7,2.8-.9,1.9-1,3-.8,2.4-.6,2.7-.3,2.6v2.7c0,0,0,2.5,0,2.5l.4,2.8.5,2.5.8,2.7.8,2.4,1.1,2.6,1.5,2,2,2,1.8,2,1.9,1.8,2.2,1.3,2.5,1.2,2.5,1,5.4,1.7,2.2.5,2.6.3h2.7c0,0,2.8,0,2.8,0l2.6-.2,2.6-.6,2.5-.8,2.5-.7,2.6-.9,2.2-1.2,2.3-1.5,1.9-1.5,2-2.1,1.5-1.9,2.7-4.6,1.2-2.7.4-2.5.3-2.9.5-2.4.3-2.9v-2.6ZM211.3,302.5l-.7,2.9-1.4,2.9-1.8,2.2-2,2-2.8,1.7-2.8.7-3.3.2-3.2-.4-2.7-.8-2.5-1.2-2.5-2.1-1.4-1.6-1.2-1.7-.8-1.7-.5-1.6-.4-1.9-.2-2.5.2-2.2.3-2.2.5-1.6.7-1.8.7-1.4,1.6-2.2,2.2-1.9,3-1.5,3.2-.8,2.8-.2,3.7.2,2.5.7,2.9,1.8,1.9,2,1.9,2.3,1.3,2.8.6,3.5v2.6c0,0,0,3.1,0,3.1Z"/>
    <path class="cls-5" d="M289.6,315.9v-.5c0,0-.3-.3-.3-.3l-.8-.4h-2.7c0,0-2.7,0-2.7,0h-.6c0,0-.5-.5-.5-.5l-2.4-3-2.2-3.2-.2-.5v-.6l.2-.5.4-.4,3-1.7,2.5-1.8,1.9-2.7,1.2-2.9.9-3.1.2-3.3v-2.7c0,0-.5-2.7-.5-2.7l-1.1-2.5-1.5-2.3-1.5-2.2-1.9-2-2.2-1.5-2.5-1.3-2.5-.8-2.8-.5-2.5-.4-8.1-.2-5.3.3h-5.3c0,0-2.7,0-2.7,0h-2.6c0,0-5.4,0-5.4,0l-5.3-.3-.7.2-.6.4-.4.4-.2.5-.2,2.5v7.4c0,0,0,.8,0,.8l.5.5,1.5.2,4.3-.5h.2c0,0,0,.5,0,.5v.8c0,0,.2,2.9.2,2.9l.2,2.9-.2,2.9-.2,2.9.3,5.7-.2,2.9-.2,2.9.2,2.9-.2,2.9v.5c0,0-.2.3-.2.3l-.8.3h-2.2c0,0-2.2-.2-2.2-.2h-.6c0,0-.3.3-.3.3l-.3,2.8.2,2.8-.2,2.8v2.9c0,0-.2.8-.2.8l.3.5,2.7.2,2.8-.2h5.5l5.5-.3,2.7.2,2.7.2,2.8-.2,2.7-.2.8-.3.3-.3v-.4c0,0,.2-2.2.2-2.2v-2.2l.2-2.2v-1.2l-.2-1.4-.3-.5-.3-.3-.5-.2-2-.2h-2.1c0,0-.3,0-.3,0l-.3-.2-.2-.7v-4.3l.2-.8.2-.2.4-.2h.7c0,0,.7.2.7.2h2.6c0,0,.8.3.8.3l.7.6,3.4,4.2,1.5,2.2,1.5,2.2v.4c0,0,0,.4,0,.4l-.2,3.2v3.2c0,0,0,.8,0,.8l.5.4,2.7.4h2.7c0,0,2.7-.3,2.7-.3l2.7-.2,2.7.2h2.7c0,0,2.7.3,2.7.3l2.7-.2.4-.5-.2-.8.2-2.5.2-5v-1l-.2-1.5ZM271.5,291.9l-.3,1.2-.5,1.1-.6,1-.8.8-1,.5-1.2.4-2.9.2-1.1.2-1.1.2h-1.5c0,0-1.5,0-1.5,0h-2.1c0,0-1.5,0-1.5,0l-.5-.2-.3-.2-.2-.4v-2.2c0,0-.2-1.1-.2-1.1v-4.4c0,0,0-1.1,0-1.1v-1.2c0,0,0-1.6,0-1.6v-.5c0,0,.2-.5.2-.5l.3-.3.5-.2h1.5c0,0,1,.2,1,.2l1.1.2h1.5c0,0,1.5,0,1.5,0l1-.2h1.1c0,0,1.5-.2,1.5-.2l1.4.2,1.2.5,1,.7.8.8.7.9.5,1.2.3,1.2v1.3c0,0,0,1.3,0,1.3Z"/>
    <polygon class="cls-5" points="347.6 327.4 345 327.3 342.4 326.9 341.6 326.7 341.4 326 341 323.5 340.9 321 340.8 318.5 341.1 315.9 341.3 315.3 341.4 315 341.9 314.7 342.3 314.6 344.4 314.6 346.5 314.6 347.1 314.5 347.5 314.4 347.8 313.9 347.9 313.6 347.9 310.6 347.6 307.6 347.6 304.6 347.7 298.6 347.9 295.6 347.7 295 347.3 294.7 346.7 294.7 346.2 294.9 344.1 297.3 341.9 299.7 339.9 302.3 337.9 304.7 336.1 307.3 334 309.8 333.4 310.2 332.6 310.2 332.1 309.8 331.7 309.5 329.9 307.8 328.1 306 326.7 303.9 325.3 301.8 323.6 300 321.9 298.2 320.6 296 319.7 294.5 319.2 293.9 318.9 293.7 318.4 293.9 317.9 294.1 317.8 294.4 317.8 297.6 318 300.8 318 304 318.1 307.2 317.8 310.4 318 313.6 318.2 314.1 318.3 314.5 318.7 314.7 319.2 314.9 321.3 314.8 322.3 314.6 323.5 314.7 323.9 314.9 324.3 315.2 324.4 316 324.7 318.5 324.6 321 324.9 323.5 324.8 326.1 324.6 326.7 324.4 327 324 327.4 323.6 327.5 320.9 327.7 318.2 327.5 315.6 327.1 313 326.8 310.4 327.2 307.7 327.5 302.4 326.9 299.9 327.1 297.2 326.9 296.2 326.7 295.9 326.5 295.8 326.1 295.6 324.7 295.8 323.5 296.1 321 295.8 318.4 295.6 316.9 295.8 315.9 296.2 315.2 297.1 314.9 302 315 302.5 314.5 302.5 313.6 302.4 310.8 302.2 307.9 302.3 305.1 302.3 302.2 302.5 299.4 302.7 296.6 302.6 293.7 302.3 290.8 302.5 288.1 302.3 285.2 302.2 284.3 302.1 283.9 301.7 283.7 300.8 283.7 299.5 283.9 298.4 284.1 297.1 284 296.8 284 296.4 283.7 296.1 283.3 296 282.8 295.8 281.4 295.9 280.3 296.2 277.8 295.9 275.2 295.8 274.2 295.9 272.7 296.3 271.9 296.8 271.8 297.2 271.7 299 271.5 299.8 271.4 302.5 271.5 305.1 271.5 313 271.5 315.7 271.3 318.3 271.3 318.8 271.5 319.2 272.1 320.9 274 322.4 276 325.3 280.3 327.1 282.3 328.9 284.1 329.7 285.4 330.3 286.4 332 288.2 332.3 288.4 332.8 288.6 333.2 288.4 333.6 288.1 335.5 286.4 337.2 284.4 340.2 280.3 343.6 276.2 345 274 345.8 272.8 346.5 271.9 347 271.5 347.6 271.3 350.2 271.5 352.8 271.7 355.5 271.5 358.1 271.5 363.4 271.6 366 271.2 367.4 271.1 368.8 271.3 369.1 271.4 369.8 271.7 370.1 272.1 370.2 272.6 370.4 275.2 370.1 277.8 370.1 280.3 369.6 282.7 369.6 283 369.4 283.4 369 283.6 368.6 283.7 366.6 284 364.6 284.2 363.7 284.4 363.3 284.7 363.3 285.2 363.1 288 363.3 290.8 363.7 296.6 363.5 299.4 363.4 302.2 363.3 305.1 363.2 307.9 363.2 310.8 363.6 313.5 363.8 314.2 364.3 314.3 364.7 314.4 368.7 314.9 369.2 315 369.6 315.2 369.9 315.5 370.1 315.9 370.3 318.4 370.2 321 370.3 323.5 370.2 325 370.1 326.1 369.9 326.6 369.7 327 369.4 327.2 368.8 327.5 367.4 327.7 366.1 327.6 363.4 327.4 358.2 327.5 355.5 327.3 352.9 327 350.3 327.1 347.6 327.4"/>
    <path class="cls-5" d="M444.5,318.7v-2.3c0,0,0-.4,0-.4l-.2-.3-.3-.4-.3-.3-.4-.3-.5-.2h-1.9c0,0-1.8,0-1.8,0l-.5-.2-.5-.5-1.2-2.2-1.2-2.3-1.1-2.6-1.1-2.7-1-2.7-1.1-2.8-1.2-2.6-1.2-2.7-1.2-2.6-1.2-2.6-1.4-2.6-1.4-2.5-1.2-2.6-1.3-2.7-2-4.9-.2-.5-.3-.3-.4-.2h-.5c0,0-5.1-.2-5.1-.2h-.2l-5.5.3h-2.7c0,0-5.4-.4-5.4-.4l-2.8-.2-2.6.2h-2.7c0,0-.8.3-.8.3l-.5.7-.2.8v6.8c0,0,.2,2.2.2,2.2v.4c0,0,.3.6.3.6l.5.5.8.2h2.9l.8.3.3.5v.5c0,0-1.1,2.7-1.1,2.7l-1,2.5-1.2,2.5-1.2,2.4-1.1,2.4-1.1,2.5-1.2,2.4-1.1,2.4-1.2,2.5-1.2,2.3-1.9,4.2-.4.5-.5.2-3.9.2h-.6c0,0-.6.4-.6.4l-.5.6v.8c0,0,0,2.2,0,2.2l.2,2.3v2.2c0,0,0,2.2,0,2.2l.2.8.5.5.5.2h.5c0,0,5.9,0,5.9,0l6.4.3h6.3l6-.2h.6c0,0,.5-.4.5-.4l.5-.5v-.8c0,0,0-1.9,0-1.9v-2c0,0,0-2,0-2v-2.1l-.2-.7-.4-.6-.5-.3-.5-.2h-1.5l-.5-.2-.4-.4-.4-.5-.2-.5v-.5l.4-1,.4-1.1.4-.8.8-.3h5.3c0,0,0,0,0,0l6.3.5,2.9-.2,2.9-.2.7.2.4.3.3.4.2.5.3.9.4,1v.8c0,0-.2.5-.2.5l-.2.4-.4.5-.6.2h-.6l-.8.2-.5.2-.4.5-.2.7v2c0,0,0,2,0,2l-.2,3.9.2.5.2.4.4.4.4.2h.4c0,0,2.9.2,2.9.2l2.9.2h3.2c0,0,3.1-.2,3.1-.2l3.2.2,3.1.2,5.9-.2h.5c0,0,.4-.2.4-.2l.3-.2.3-.3.2-.5v-.4c0,0,.2-2.2.2-2.2v-2.4c0,0,0-2.2,0-2.2ZM414.3,297.3l-.3.7-.6.5-.6.2-2.8-.2h-2.9c0,0-.5-.2-.5-.2l-.5-.4-.5-.6-.2-.7.2-.6.8-1.8.9-1.9.7-1.9.6-1.9.4-.5.6-.2h.7l.7.2.4.5.6,1.9.7,1.9.8,2,.8,1.9v.5c0,0,0,.5,0,.5Z"/>
    <polygon class="cls-5" points="459.4 325.9 456.6 324.7 454 323 451.8 321 449.8 318.9 448.9 317.6 448.1 316.4 447.2 315.2 445.6 312.7 445 311.3 444.7 309.8 444.1 306.8 444 305.3 443.6 302.4 443.5 301 443.5 297.8 443.8 294.8 444.2 291.8 444.8 288.9 445.2 287.4 445.8 286.1 446.6 284.7 447.4 283.4 448.2 282.3 450.3 280.1 452.5 278 453.6 277.1 454.9 276.2 456.1 275.4 460.1 273.3 462.8 272.1 465.7 271.5 467.2 271.3 471.7 270.6 473.2 270.4 474.8 270.4 477.8 270.6 480.8 271.1 482.3 271.2 485.2 271.8 488.1 272.9 489.4 273.7 490.7 274.4 493.2 276.1 495.5 277.9 496.7 279 496.8 279.3 497.1 279.3 497.1 279.5 497.2 279.9 497.2 281.4 497.1 282.3 497.1 283.4 496.9 285 497.1 286.6 497.2 287.8 497.3 288.8 497.1 290.2 496.9 290.8 496.7 291.1 496.4 291.3 495.9 291.5 494.3 291.7 492 291.7 490.4 291.6 487.6 291.7 486.5 291.6 484.8 291.3 484.3 291.2 484 291.1 483.6 290.3 483.5 289.1 483.5 287.4 483.3 286.1 483.2 285.4 483 285.2 482.7 285 480.5 284.3 476.5 283.5 473 283.5 471.5 283.7 469.9 284 468.4 284.4 467 285 465.6 285.8 464.4 286.8 463.3 287.9 462.3 289.1 461.4 290.2 460.7 291.6 460.2 293.2 459.8 294.5 459.5 296.1 459.3 297.6 459.2 299.4 459.3 301 459.4 302.7 459.8 304.2 460.1 305.4 460.7 307.1 461.5 308.4 462.4 309.6 463.4 310.7 464.5 311.8 465.9 312.5 467.3 313.2 468.7 313.7 470.2 314.1 471.7 314.4 473.2 314.6 477.3 314.6 478.6 314.6 479.8 314.2 481 313.9 482.2 313.5 484.4 312.3 484.6 312.1 484.7 311.8 484.9 311.2 484.9 310.5 485.1 310 485.2 309.5 485 308.8 484.9 308.3 484.5 308 484.2 307.8 482.1 307.4 479.6 307.8 476.1 307.9 475 308.1 473.8 308.1 472 307.9 471.6 307.7 471.3 307.4 471 306.4 470.7 305.1 470.6 303.4 470.6 302.1 470.6 300.8 470.6 299 470.9 297.7 471 297.3 471.3 297 471.6 296.8 472.1 296.7 474 296.5 476.4 296.6 480.2 296.6 482.8 296.4 484.5 296.3 486.5 296.3 489 296.5 495.3 296.6 497.2 296.8 497.7 296.9 498.1 297 498.3 297.3 498.4 297.7 498.6 299.6 498.6 301 498.5 302.2 498.4 304.2 498.4 312.4 498.5 313.6 498.5 316.9 498.4 317 498.4 317.1 497.6 318.6 495.8 320.7 493.8 322.7 491.4 324.2 490.3 324.9 487.7 325.8 482.4 327.5 479.6 328.1 476.8 328.2 474.1 328.3 471 328.2 468.1 328.1 465.1 327.6 462.2 327 459.4 325.9"/>
    <polygon class="cls-5" points="519.5 327.1 519 327 518.6 326.8 518.4 326.5 518.2 326 518.2 323.5 518.3 321 518.1 318.5 518.4 315.9 518.5 315.4 518.7 315 519.1 314.6 519.5 314.5 520.5 314.4 521.6 314.6 523.8 314.7 524.3 314.6 524.7 314.4 525.1 314.1 525.3 313.6 525.5 310.8 525.2 309.2 524.3 306.7 523.7 305.5 522 303.2 520.5 300.9 518.9 298.5 515.5 294 513.9 291.7 512.4 289.4 510.7 287.1 509 284.8 508.5 284.2 508.1 284 507.7 284 506.9 284 505.9 283.9 504.1 283.6 503.1 283.3 502.7 283 502.5 282.7 502.4 281.3 502.4 280.2 502.5 277.6 502.4 275.2 502.6 272.6 502.8 272.1 503.1 271.8 503.6 271.7 504 271.6 506.1 271.4 507.2 271.5 510.3 271.6 516.6 271.8 519.8 271.6 526.1 271.1 527.8 271.1 529.3 271.3 529.8 271.5 530 271.7 530.3 272.3 530.4 272.7 530.7 275.5 530.7 278.3 530.9 281.1 530.6 283.9 530 284.1 529.4 283.9 529 283.8 528.3 284 528 284.4 527.8 285 528 285.6 529.7 288.4 531.4 291.1 531.9 291.9 532.4 292.3 533.2 292.3 533.8 291.8 534.4 291.1 536.1 288.3 537.8 285.4 537.9 284.8 537.8 284.4 537.5 284.1 537 284 536 284.2 535.5 283.8 535.1 282.7 535 281.1 535.1 278.3 535.1 275.5 535.6 272.7 535.8 271.9 536.2 271.7 536.6 271.6 539.7 271.2 542.9 271.3 549.1 271.3 555.5 271.5 558.5 271.4 561.7 271.6 562.1 271.7 562.5 271.8 562.8 272.4 562.9 272.7 563 273.9 562.9 275.2 562.7 277.6 562.9 280.2 562.8 282.6 562.7 283 562.5 283.5 562.2 283.7 561.7 283.9 560.8 284.1 559.8 284.2 557.9 284.1 557 284.1 556.3 284.5 556 285 554.8 286.8 553.4 289.2 551.8 291.5 550.3 293.8 548.8 296.1 547.4 298.5 545.6 300.7 543.9 302.8 541.3 307.8 541.1 308.1 540.9 308.6 540.9 311 540.8 313.3 540.9 313.9 541.2 314.3 541.7 314.6 542.2 314.8 544.3 314.6 546.2 314.7 546.7 314.9 547 315.1 547.3 315.5 547.4 315.9 547.6 318.4 547.3 321 547.5 323.5 547.3 326 547.3 326.3 547 326.8 546.6 327.1 546.2 327.1 543.6 327.5 540.9 327.4 535.5 326.9 532.9 327 530.2 327.1 524.9 327 522.2 327.3 521.1 327.3 519.5 327.1"/>
    <path class="cls-5" d="M624.7,318.7v-2.3c0,0,0-.4,0-.4l-.2-.3-.3-.4-.3-.3-.4-.3-.5-.2h-1.9c0,0-1.8,0-1.8,0l-.5-.2-.5-.5-1.2-2.2-1.2-2.3-1.1-2.6-1.1-2.7-1-2.7-1.1-2.8-1.2-2.6-1.2-2.7-1.2-2.6-1.2-2.6-1.4-2.6-1.4-2.5-1.2-2.6-1.3-2.7-2-4.9-.2-.5-.3-.3-.4-.2h-.5c0,0-5.1-.2-5.1-.2h-.2l-5.5.3h-2.7c0,0-5.4-.4-5.4-.4l-2.8-.2-2.6.2h-2.7c0,0-.8.3-.8.3l-.5.7-.2.8v6.8c0,0,.2,2.2.2,2.2v.4c0,0,.3.6.3.6l.5.5.8.2h2.9l.8.3.3.5v.5c0,0-1.1,2.7-1.1,2.7l-1,2.5-1.2,2.5-1.2,2.4-1.1,2.4-1.1,2.5-1.2,2.4-1.1,2.4-1.2,2.5-1.2,2.3-1.9,4.2-.4.5-.5.2-3.9.2h-.6c0,0-.6.4-.6.4l-.5.6v.8c0,0,0,2.2,0,2.2l.2,2.3v2.2c0,0,0,2.2,0,2.2l.2.8.5.5.5.2h.5c0,0,5.9,0,5.9,0l6.4.3h6.3l6-.2h.6c0,0,.5-.4.5-.4l.5-.5v-.8c0,0,0-1.9,0-1.9v-2c0,0,0-2,0-2v-2.1l-.2-.7-.4-.6-.5-.3-.5-.2h-1.5l-.5-.2-.4-.4-.4-.5-.2-.5v-.5l.4-1,.4-1.1.4-.8.8-.3h5.3c0,0,0,0,0,0l6.3.5,2.9-.2,2.9-.2.7.2.4.3.3.4.2.5.3.9.4,1v.8c0,0-.2.5-.2.5l-.2.4-.4.5-.6.2h-.6l-.8.2-.5.2-.4.5-.2.7v2c0,0,0,2,0,2l-.2,3.9.2.5.2.4.4.4.4.2h.4c0,0,2.9.2,2.9.2l2.9.2h3.2c0,0,3.1-.2,3.1-.2l3.2.2,3.1.2,5.9-.2h.5c0,0,.4-.2.4-.2l.3-.2.3-.3.2-.5v-.4c0,0,.2-2.2.2-2.2v-2.4c0,0,0-2.2,0-2.2ZM594.5,297.3l-.3.7-.6.5-.6.2-2.8-.2h-2.9c0,0-.5-.2-.5-.2l-.5-.4-.5-.6-.2-.7.2-.6.8-1.8.9-1.9.7-1.9.6-1.9.4-.5.6-.2h.7l.7.2.4.5.6,1.9.7,1.9.8,2,.8,1.9v.5c0,0,0,.5,0,.5Z"/>
    <path class="cls-5" d="M688,315.9v-.5c0,0-.3-.3-.3-.3l-.9-.4h-2.7c0,0-2.7,0-2.7,0h-.6c0,0-.5-.5-.5-.5l-2.4-3-2.2-3.2-.2-.5v-.6l.2-.5.4-.4,3-1.7,2.5-1.8,1.9-2.7,1.2-2.9.8-3.1.2-3.3v-2.7c0,0-.5-2.7-.5-2.7l-1.1-2.5-1.5-2.3-1.5-2.2-1.9-2-2.2-1.5-2.5-1.3-2.5-.8-2.8-.5-2.5-.4-8.1-.2-5.3.3h-5.3c0,0-2.7,0-2.7,0h-2.6c0,0-5.4,0-5.4,0l-5.3-.3-.7.2-.6.4-.4.4-.2.5-.2,2.5v7.4c0,0,0,.8,0,.8l.5.5,1.5.2,4.3-.5h.2c0,0,0,.5,0,.5v.8c0,0,.2,2.9.2,2.9l.2,2.9-.2,2.9-.2,2.9.3,5.7-.2,2.9-.2,2.9.2,2.9-.2,2.9v.5c0,0-.2.3-.2.3l-.8.3h-2.2c0,0-2.2-.2-2.2-.2h-.6c0,0-.3.3-.3.3l-.3,2.8.2,2.8-.2,2.8v2.9c0,0-.2.8-.2.8l.3.5,2.7.2,2.8-.2h5.5l5.5-.3,2.7.2,2.7.2,2.8-.2,2.7-.2.8-.3.3-.3v-.4c0,0,.2-2.2.2-2.2v-2.2l.2-2.2v-1.2l-.2-1.4-.3-.5-.3-.3-.5-.2-2-.2h-2.1c0,0-.3,0-.3,0l-.3-.2-.2-.7v-4.3l.2-.8.2-.2.4-.2h.7c0,0,.7.2.7.2h2.6c0,0,.8.3.8.3l.7.6,3.4,4.2,1.5,2.2,1.5,2.2v.4c0,0,0,.4,0,.4l-.2,3.2v3.2c0,0,0,.8,0,.8l.5.4,2.7.4h2.7c0,0,2.7-.3,2.7-.3l2.7-.2,2.7.2h2.7c0,0,2.7.3,2.7.3l2.7-.2.4-.5-.2-.8.2-2.5.2-5v-1l-.2-1.5ZM669.9,291.9l-.3,1.2-.5,1.1-.6,1-.8.8-1,.5-1.2.4-2.9.2-1.1.2-1.1.2h-1.5c0,0-1.5,0-1.5,0h-2.1c0,0-1.5,0-1.5,0l-.5-.2-.3-.2-.2-.4v-2.2c0,0-.2-1.1-.2-1.1v-4.4c0,0,0-1.1,0-1.1v-1.2c0,0,0-1.6,0-1.6v-.5c0,0,.2-.5.2-.5l.3-.3.5-.2h1.5c0,0,1,.2,1,.2l1.1.2h1.5c0,0,1.5,0,1.5,0l1-.2h1.1c0,0,1.5-.2,1.5-.2l1.4.2,1.2.5,1,.7.8.8.7.9.5,1.2.3,1.2v1.3c0,0,0,1.3,0,1.3Z"/>
    <polygon class="cls-3" points="705 282.4 704.8 282.7 704.5 282.7 703.5 282.8 702.6 282.8 701.6 282.9 700.7 282.9 700.3 282.7 700.2 282.4 700.1 281.4 700.2 280.4 700.2 279.4 700.2 278.4 700.3 274.5 700.2 273.5 700.3 272.5 700.4 272.1 700.7 272 701.6 271.9 702.6 272 703.6 271.9 704.5 272 704.8 272.1 705 272.4 705.1 273.2 705 274 704.9 274.3 704.9 274.5 706.1 274.5 707.2 274.4 708.4 274.4 709.5 274.5 711.9 274.5 713 274.5 714.1 274.6 715.2 274.8 716.3 275.2 717.3 275.7 718.2 276.3 719 277.1 719.7 278 720.4 278.9 720.9 279.9 721.3 281 721.5 282.1 721.6 283.2 721.6 284.4 721.6 285.5 721.4 286.6 721.2 287.7 720.8 288.8 720.3 289.8 719.7 290.8 719.1 291.7 718.3 292.5 717.3 293 716.2 293.5 715.2 293.8 714.1 294 712.9 294.2 711.8 294.2 709.6 294.2 708.6 294.2 707.5 294.3 706.4 294.2 705.4 294.2 705.1 294.4 705 294.8 705 295.5 704.9 296.3 704.7 296.5 704.5 296.7 704.3 296.7 704.1 296.6 702.6 296.7 701.1 296.7 700.9 296.7 700.7 296.7 700.5 296.5 700.4 296.3 700.2 295.3 700.1 294.3 700.2 292.3 700.3 291.3 700.3 290.3 700.2 288.3 700.1 287.3 700.3 286.3 700.4 285.9 700.7 285.8 701.6 285.7 702.5 285.8 703.4 285.8 704.3 285.8 704.5 285.8 704.7 285.9 704.8 286.1 704.9 286.3 704.8 286.5 704.8 287.9 704.8 288.2 704.9 288.3 706.1 288.5 707.2 288.5 708.4 288.5 711.8 288.5 713.1 288.3 714.1 288 715.2 287.4 716 286.7 716.4 285.6 716.5 284.4 716.4 283.1 716 282.1 715.2 281.3 714.2 280.7 713.1 280.5 711.9 280.4 709.7 280.3 708.6 280.4 707.5 280.4 705.4 280.3 705.1 280.2 705 280.3 705 282.4"/>
    <polygon class="cls-3" points="721.2 307.5 721.3 308.6 721.3 309.7 721.1 309.8 720.8 309.7 719.8 309.7 718.9 309.7 717.9 309.8 717 309.7 716.6 309.6 716.5 309.3 716.5 307.4 716.3 307.3 716.1 307.3 714.7 307.3 713.4 307.4 713.1 307.3 713 307.4 712.9 308.5 712.9 309.7 712.9 310.9 712.9 313.3 713 314.5 713.1 314.6 713.4 314.6 714.1 314.7 714.8 314.7 716.3 314.7 716.4 314.6 716.5 313.7 716.4 312.8 716.4 312.5 716.6 312.3 717.6 312.2 718.7 312.3 720.8 312.2 721.1 312.2 721.2 312.3 721.3 313.4 721.1 314.5 721.1 315.6 721.1 316.6 721.2 317.7 721.3 318.8 721.3 319.9 721.2 320.9 721.3 322 721.2 323.1 721.1 323.2 720.8 323.2 717.6 323.2 716.5 323 716.4 322.9 716.5 322.6 716.5 321.8 716.4 321 716.6 320.7 716.5 320.6 715.4 320.6 714.3 320.7 713.1 320.6 712 320.5 710.9 320.6 709.8 320.6 707.5 320.6 706.4 320.6 705.3 320.6 705 320.7 704.9 321 704.8 321.8 704.7 322.6 704.7 323 704.4 323.1 703.5 323.1 702.5 323 701.5 323.1 700.6 323.1 700.3 323 700.1 322.6 700.1 321.7 700.2 320.7 700.1 318.7 700.2 317.7 700.2 316.7 700.2 315.7 700.2 313.8 700.3 312.8 700.3 312.4 700.6 312.2 701.5 312.3 702.5 312.4 703.4 312.4 704.4 312.3 704.6 312.2 704.7 312.4 704.8 313.5 704.9 314.6 705 314.7 705.3 314.7 707.7 314.7 708 314.8 708.2 314.7 708.2 313.5 708.2 312.2 708.2 309.8 708.3 308.5 708.2 307.3 708 307.2 707.7 307.4 706.5 307.2 705.3 307.2 705 307.2 704.9 307.4 704.9 308.6 705 309.7 704.7 309.8 704.4 309.8 703.4 309.7 702.5 309.6 700.6 309.7 700.4 309.8 700.3 309.7 700.2 308.6 700.3 307.5 700.2 306.5 700.1 305.4 700.1 303.2 700.1 302.1 700 301.1 700 300 700.1 298.9 700.3 298.8 700.6 299 702.5 299 703.4 298.9 704.4 298.8 704.7 298.8 704.9 298.9 704.9 300 704.9 301 705 301.3 705.3 301.4 706.4 301.5 707.4 301.4 710.7 301.4 711.7 301.4 713.9 301.5 715 301.5 716.1 301.4 716.4 301.3 716.5 301 716.5 300 716.5 298.9 716.7 298.8 717 298.9 717.9 299 718.9 299 719.8 299 720.8 299 721 298.8 721.1 298.9 721.2 300 721.1 301.1 721.1 302.1 721.1 305.4 721.2 307.5"/>
    <polygon class="cls-3" points="719 325.2 719.4 325.2 719.9 325.4 720.4 325.5 720.8 325.8 721.2 326.1 721.5 326.5 721.6 326.9 721.7 327.4 721.8 327.9 721.8 328.4 721.8 329.1 721.6 329.7 721.4 330.2 721.1 330.7 720.7 331.1 720.1 331.4 719.6 331.6 719 331.6 718.4 331.6 717.8 331.3 717.3 331 716.9 330.6 716.5 330.2 716.2 329.7 716 329.1 716 328.4 716 327.9 716.2 327.4 716.4 327 716.6 326.6 716.9 326.2 717.2 325.9 717.6 325.6 718 325.4 718.5 325.3 719 325.2"/>
    <polygon class="cls-5" points="601 260.1 598.8 260 596 260.1 591.1 260.1 588.3 260.1 586.3 260.1 585.8 260.1 585.5 260.3 583 262.8 580.4 265.3 580.3 265.4 580.4 265.5 580.6 265.6 580.8 265.6 586.4 265.6 591.4 265.8 593.1 265.7 593.8 265.6 594.5 265.3 597.5 263 601.3 260.6 601.4 260.3 601 260.1"/>
  </g>
  <g>
    <path class="cls-1" d="M415.3,442.2c38.4,0,74.4-14.9,101.5-42.1,12.2-12.2,22-26.3,29-41.6-1.3.1-2.5.3-3.8.4-22.6,47.3-70.9,80-126.8,80s-104.2-32.7-126.8-80c-1.3-.1-2.5-.3-3.8-.4,7,15.3,16.8,29.3,29,41.6,27.1,27.1,63.2,42.1,101.5,42.1Z"/>
    <path class="cls-3" d="M415.3,148.6c-40.1,0-77.7,15.6-106,43.9-13.9,13.9-24.7,30-32.1,47.6,1.2-.2,2.5-.3,3.7-.4,22.7-51.7,74.4-87.8,134.5-87.8s111.8,36.1,134.5,87.8c1.2.1,2.5.3,3.7.4-7.4-17.5-18.2-33.7-32.1-47.6-28.3-28.3-66-43.9-106-43.9Z"/>
    <path class="cls-1" d="M415.3,155c-38.4,0-74.4,14.9-101.5,42.1-12.4,12.4-22.2,26.7-29.3,42.2,1.2-.1,2.5-.3,3.7-.4,22.5-47.6,70.9-80.6,127.1-80.6s104.6,33,127.1,80.6c1.2.1,2.5.3,3.7.4-7-15.5-16.9-29.8-29.3-42.2-27.1-27.1-63.2-42.1-101.5-42.1Z"/>
    <path class="cls-3" d="M415.3,448.6c40.1,0,77.7-15.6,106-43.9,13.7-13.7,24.5-29.7,31.9-47-1.2.2-2.5.3-3.7.5-22.8,51.4-74.3,87.3-134.2,87.3s-111.4-35.9-134.2-87.3c-1.2-.1-2.5-.3-3.7-.5,7.4,17.3,18.2,33.2,31.9,47,28.3,28.3,66,43.9,106,43.9Z"/>
    <path class="cls-4" d="M558.2,357c-7.7,18.7-19.1,36-33.8,50.7-29.2,29.2-67.9,45.2-109.2,45.2s-80-16.1-109.2-45.2c-14.8-14.8-26.1-32-33.8-50.7-2.8-.4-5.6-.7-8.4-1.1,23.2,61.1,82.2,104.5,151.3,104.5s128.2-43.4,151.3-104.5c-2.8.4-5.6.8-8.4,1.1Z"/>
    <path class="cls-4" d="M272.1,240.7c7.7-19,19.1-36.4,34-51.3,29.2-29.2,67.9-45.2,109.2-45.2s80,16.1,109.2,45.2c14.9,14.9,26.4,32.3,34,51.3,2.8.4,5.6.7,8.4,1.1-23-61.4-82.2-105-151.6-105s-128.6,43.7-151.6,105c2.8-.4,5.6-.8,8.4-1.1Z"/>
    <path class="cls-2" d="M441.4,363.3c66.2-1.8,132.2-9.9,197.2-21.5-65,11.6-131,18-197.1,19.3h-50.3c-66.8-1.2-133.5-7.7-199.1-19.3,65.6,11.7,132.3,19.9,199.2,21.5h50.3Z"/>
    <path class="cls-2" d="M433.3,236.1c68.9,1,137.6,7.7,205.2,20.2-67.6-12.5-136.4-21.1-205.2-22.5h-32.7c-70,1-139.9,9.8-208.6,22.5,68.3-12.6,137.7-19.3,207.2-20.2h34.2Z"/>
  </g>
  <g>
    <path class="cls-4" d="M463.9,231.9c.9.7,0-18.1,0-18.1,0,0-10.9-1.8-11.3,0s0,17.6,0,17.6c3.8.1,10.4-.2,11.3.5Z"/>
    <path class="cls-4" d="M420.9,230.8c.3-1.1,1.4-63.7,0-64.3s-10.9-.9-11.3,0-.7,62-.2,63.4,11.3,2,11.6,1Z"/>
    <path class="cls-4" d="M433.3,230.9h0s0,0,0,0c3,0,8.7,1.1,9,.2s-.5-10.5-.6-21c0-11.4.6-23.3.6-23.3,0,0-10.1-1.5-11.3,0s0,44,0,44h2.2Z"/>
    <path class="cls-4" d="M399.4,230.8c.9-.3.4-11.5.3-22.6-.1-10.5.2-20.8-.3-21.4-.9-1.2-11.4-.4-11.3,0s-.9,43.9,0,44.2,9.7.3,11.3-.3Z"/>
    <path class="cls-4" d="M377.9,231.4s.7-17.1,0-17.6-11.3,0-11.3,0c0,0,.4,3.3.1,7.1s-.2,10.3-.1,11c0,1.5,7.6-.4,11.3-.5Z"/>
  </g>
  <g>
    <polygon class="cls-4" points="416 385.9 420.9 395.8 431.9 397.4 423.9 405.1 425.8 416 416 410.9 406.2 416 408.1 405.1 400.2 397.4 411.1 395.8 416 385.9"/>
    <polygon class="cls-4" points="485.4 382.4 489.4 387.9 496.1 387.6 492.2 393.1 494.4 399.4 488 397.4 482.7 401.5 482.7 394.8 477.2 391 483.5 388.9 485.4 382.4"/>
    <polygon class="cls-4" points="346.4 382.5 348.3 388.9 354.7 391 349.2 394.8 349.1 401.5 343.8 397.4 337.4 399.4 339.7 393.1 335.8 387.7 342.5 387.9 346.4 382.5"/>
    <polygon class="cls-4" points="455 386.8 459.5 394.1 468.1 394.6 462.5 401.1 464.6 409.5 456.7 406.2 449.5 410.8 450.2 402.2 443.5 396.8 451.9 394.8 455 386.8"/>
    <polygon class="cls-4" points="377 386.8 380.2 394.8 388.6 396.8 381.9 402.2 382.6 410.8 375.4 406.2 367.4 409.5 369.6 401.1 364 394.6 372.6 394.1 377 386.8"/>
  </g>
  <g>
    <path class="cls-3" d="M441.4,357.6h-50.3c-66.8-1.2-133.8-7.7-198.9-19.3l-.3,1.5h0s0,0,0,0l-.3,1.5c73.2,13,138.4,20.1,199.4,21.6h0s50.3,0,50.3,0c60.4-1.6,125-8.6,197.4-21.5l-.5-3c-64.5,11.5-130.7,18-196.9,19.3Z"/>
    <path class="cls-3" d="M192,258.3h0s.3,1.5.3,1.5c67.8-12.5,137.4-19.3,206.9-20.2h34.1c68.9,1,137.9,7.8,205,20.2l.5-3c-75.6-13.9-142.8-21.3-205.5-22.5h-32.8c-63.6.9-131.9,8.3-208.9,22.5l.3,1.5h0Z"/>
  </g>
  <path class="cls-3" d="M228.4,227.9c-2.7-2.8-4.8-5.7-6.8-8-4.2-4.8-4.9-3.1-7-7.9-1.6-3.7.6-1.9,3.2-7.6.9-2,1.7-4.6,3.3-7.5,1.1-2.1,2.8-4.3,4.3-7,1.5-2.7,2.6-5.2,3.9-7.2,1.8-2.8,3.6-4.8,4.8-6.6,3.7-5.2,1-6.1,5-6.6s4,.9,10.3,2.1,6.5.9,10.3,1.9,6.5,2.1,10,3.2c.4.1.9-.2,1.2,0s.6.6,1,.7.7-.1,1,0c2.1-2.4,4.5-4.5,6.7-6.8s4.1-4.8,6.4-7,4.9-4,7.3-6.1c-.1-.4-.6-.8-.7-1.2s.2-.9,0-1.2-.6-.6-.7-1c-1.1-3.5-1.6-7-2.4-10.2s-2.1-7.2-2.7-10.1c-1.2-6.3-1.9-5.1-1.3-10.3.5-4.1.8-1.7,6-5.4,1.8-1.2,4.2-2.4,7-4.2s4.1-3,6.8-4.5c2.7-1.5,5.2-2.5,7.3-3.6s5.2-3.1,7.1-4c5.7-2.6,3.9-4.1,7.6-2.5s3.5,2.1,8.3,6.3c2.3,2,4.6,4.7,7.4,7.4s5.1,4.5,7.6,7.2c.3.3.2.8.5,1.1s.8.3,1.1.6.4.9.7,1.2c3-1.1,5.9-2.4,9-3.3s6.2-1.3,9.3-2.1c3.1-.7,6.1-1.8,9.2-2.4,0-.4.4-.5.5-.9s-.2-.8-.1-1.2.6-.7.6-1c.8-3.6,1.3-7.1,2.2-10.3,1.1-3.8,2.5-7,3.5-9.9,2.1-6.1.2-5.8,3.3-10s1.9-.5,8.2-1,4.8-.8,8.1-.9,5.1.3,8.2.3,5.8-.4,8.2-.3,6,.7,8.1.9c6.3.6,5.8-2.2,8.2,1,3.1,4.2,1.2,3.9,3.3,10,1,2.9,2.4,6.1,3.5,9.9.9,3.1,1.4,6.7,2.2,10.3,0,.4.6.7.6,1s-.2.8-.1,1.2.4.5.5.9c3.1.6,6.1,1.6,9.2,2.4s6.3,1.2,9.3,2.1,6,2.3,9,3.3c.3-.3.4-.9.7-1.2s.8-.3,1.1-.6.2-.8.5-1.1c2.5-2.7,5.3-4.9,7.6-7.2,2.8-2.7,5.2-5.4,7.4-7.4,4.8-4.2,3.5-4.2,8.3-6.3,3.7-1.6,1.9-.2,7.6,2.5s4.2,2.5,7.1,4c2.1,1.1,4.7,2.1,7.3,3.6,2.7,1.5,4.8,3.3,6.8,4.5s5.3,2.9,7,4.2c5.2,3.7,5.5,1.3,6,5.4.6,5.2,0,4-1.3,10.3-.6,3-1.7,6.3-2.7,10.1-.8,3.2-1.3,6.7-2.4,10.2-.1.4-.6.6-.7,1s.1.9,0,1.2-.6.8-.7,1.2c2.4,2.1,5.1,3.9,7.4,6.1s4.3,4.7,6.5,7c2.2,2.3,4.6,4.4,6.7,6.8.4-.1.7.1,1,0s.6-.6,1-.7.9.2,1.2,0c3.5-1.1,6.8-2.4,10-3.2,3.8-1,7.4-1.3,10.3-1.9,6.3-1.2,5.1-2.7,10.3-2.1s1.4,1.4,5,6.6,3.1,3.8,4.8,6.6,2.3,4.6,3.9,7.2c1.5,2.7,3.2,4.9,4.3,7s2.4,5.5,3.3,7.5c2.6,5.7,4.8,3.9,3.2,7.6-2.1,4.8-2.8,3-7,7.9-2,2.3-4.1,5.2-6.8,8s-5.1,4.5-7.8,7.1c-.3.3-.3.8-.6,1.1s-.8.2-1.1.5-.2.7-.5.9c.3.9.2,1.9.5,2.8s1,1.7,1.3,2.6.3,1.7.6,2.6c-2.5-.4-4.9-.4-7.4-.8s-4.9-1.1-7.4-1.5-5.2-.4-7.7-.8c-7.8-21.7-19.6-41.5-35-58-15.5-16.5-34.5-29.6-55.6-38.7-20.3-8.8-42.7-14.1-66.2-14.1s-45.9,5.3-66.2,14.1c-21.1,9.1-40.1,22.2-55.6,38.7-15.4,16.5-27.2,36.3-35,58-2.5.3-5.2.4-7.7.8s-4.9,1.1-7.4,1.5-5,.4-7.4.8c.3-.9.3-1.7.6-2.6.3-.9,1-1.7,1.3-2.6s.2-1.9.5-2.8c-.3-.3-.2-.6-.5-.9s-.8-.2-1.1-.5-.3-.8-.6-1.1c-2.7-2.5-5.5-4.7-7.8-7.1Z"/>
  <path class="cls-3" d="M236.3,362.8c.3-.3.3-.8.6-1.1s.8-.2,1.1-.5.2-.7.5-.9c-.3-.9-.2-1.9-.5-2.8s-1-1.7-1.3-2.6-.3-1.7-.6-2.6c2.5.4,4.9.4,7.4.8s4.9,1.1,7.4,1.5,5.2.4,7.7.8c7.8,21.7,19.6,41.5,35,58,15.5,16.5,34.5,29.6,55.6,38.7,20.3,8.8,42.7,14.1,66.2,14.1s45.9-5.3,66.2-14.1c21.1-9.1,40.1-22.2,55.6-38.7,15.4-16.5,27.2-36.3,35-58,2.5-.3,5.2-.4,7.7-.8s4.9-1.1,7.4-1.5,5-.4,7.4-.8c-.3.9-.3,1.7-.6,2.6s-1,1.7-1.3,2.6-.2,1.9-.5,2.8c.3.3.2.6.5.9s.8.2,1.1.5.3.8.6,1.1c2.7,2.5,5.5,4.7,7.8,7.1s4.8,5.7,6.8,8c4.2,4.8,4.9,3.1,7,7.9,1.6,3.7-.6,1.9-3.2,7.6s-1.7,4.5-3.3,7.5-2.8,4.3-4.3,7c-1.5,2.7-2.6,5.2-3.9,7.2s-3.6,4.8-4.8,6.6c-3.7,5.2-1,6.1-5,6.6s-4-.9-10.3-2.1c-3-.6-6.5-.9-10.3-1.9s-6.5-2.1-10-3.2c-.4-.1-.9.2-1.2,0s-.6-.6-1-.7-.7.1-1,0c-2.1,2.4-4.5,4.5-6.7,6.8-2.2,2.3-4.2,4.8-6.5,7-2.3,2.2-4.9,4-7.4,6.1.1.4.6.8.7,1.2s-.1.9,0,1.2.6.6.7,1c1.1,3.5,1.6,7,2.4,10.2,1,3.8,2.1,7.2,2.7,10.1,1.2,6.3,1.9,5.1,1.3,10.3-.5,4.1-.8,1.7-6,5.4-1.8,1.2-4.2,2.4-7,4.2-2,1.3-4.1,3-6.8,4.5-2.7,1.5-5.2,2.5-7.3,3.6-2.9,1.6-5.2,3.1-7.1,4-5.7,2.6-3.9,4.1-7.6,2.5-4.8-2.1-3.5-2.1-8.3-6.3-2.3-2-4.6-4.7-7.4-7.4s-5.1-4.5-7.6-7.2c-.3-.3-.2-.8-.5-1.1s-.8-.3-1.1-.6-.4-.9-.7-1.2c-3,1.1-5.9,2.4-9,3.3-3,.9-6.2,1.3-9.3,2.1s-6.1,1.8-9.2,2.4c0,.4-.4.5-.5.9s.2.8.1,1.2-.6.7-.6,1c-.8,3.6-1.3,7.1-2.2,10.3-1.1,3.8-2.5,7-3.5,9.9-2.1,6.1-.2,5.8-3.3,10-2.4,3.3-1.9.5-8.2,1s-4.8.8-8.1.9-5.1-.3-8.2-.3-5.8.4-8.2.3-6-.7-8.1-.9c-6.3-.6-5.8,2.2-8.2-1-3.1-4.2-1.2-3.9-3.3-10s-2.4-6.1-3.5-9.9c-.9-3.1-1.4-6.7-2.2-10.3,0-.4-.6-.7-.6-1s.2-.8.1-1.2-.4-.5-.5-.9c-3.1-.6-6.1-1.6-9.2-2.4s-6.3-1.2-9.3-2.1-6-2.3-9-3.3c-.3.3-.4.9-.7,1.2s-.8.3-1.1.6-.2.8-.5,1.1c-2.5,2.7-5.3,4.9-7.6,7.2s-5.2,5.4-7.4,7.4c-4.8,4.2-3.5,4.2-8.3,6.3s-1.9.2-7.6-2.5-4.2-2.5-7.1-4-4.7-2.1-7.3-3.6c-2.7-1.5-4.8-3.3-6.8-4.5-2.8-1.8-5.3-2.9-7-4.2-5.2-3.7-5.5-1.3-6-5.4-.6-5.2,0-4,1.3-10.3s1.7-6.3,2.7-10.1c.8-3.2,1.3-6.7,2.4-10.2.1-.4.6-.6.7-1s-.2-.9,0-1.2.6-.8.7-1.2c-2.4-2.1-5-3.9-7.3-6.1-2.3-2.2-4.3-4.7-6.4-7-2.2-2.3-4.6-4.4-6.7-6.8-.4.1-.7-.1-1,0s-.6.6-1,.7-.9-.2-1.2,0c-3.5,1.1-6.8,2.4-10,3.2s-7.4,1.3-10.3,1.9c-6.3,1.2-5.1,2.7-10.3,2.1s-1.4-1.4-5-6.6-3.1-3.8-4.8-6.6-2.3-4.6-3.9-7.2c-1.5-2.7-3.2-4.8-4.3-7-1.6-2.9-2.4-5.5-3.3-7.5-2.6-5.7-4.8-3.9-3.2-7.6,2.1-4.8,2.8-3,7-7.9s4.1-5.2,6.8-8,5.1-4.5,7.8-7.1Z"/>
</svg>